<?xml version="1.0" encoding="UTF-8"?>
<svg id="Calque_1" xmlns="http://www.w3.org/2000/svg" version="1.1" viewBox="0 0 841.9 595.3">
  <!-- Generator: Adobe Illustrator 30.4.0, SVG Export Plug-In . SVG Version: 2.1.4 Build 226)  -->
  <defs>
    <style>
      .st0 {
        fill: #1d1d1b;
      }
    </style>
  </defs>
  <path class="st0" d="M210,297.6s-32.5,12.9-33.3,74.7c-.5,41.2-33.5,74.7-74.7,74.7H27.2v-74.7c0-41.2,33.5-74.7,74.7-74.7-41.2,0-74.7-33.5-74.7-74.7v-74.7h74.7c41.2,0,74.2,33.5,74.7,74.7.9,61.7,33.3,74.7,33.3,74.7Z"/>
  <path class="st0" d="M814.5,180.9c-.5-18.2-15.6-32.8-33.8-32.8h-221.6c-12,0-21.8,9.8-21.8,21.8v255.1c0,11.7,9.3,21.3,21,21.8,43.8,1.5,108.6-13.7,185.9-95.2,62.4-65.6,71.3-138.1,70.4-170.8h0ZM706.4,271.1c-19.2,0-34.7-15.5-34.7-34.7s15.5-34.7,34.7-34.7,34.7,15.5,34.7,34.7-15.5,34.7-34.7,34.7Z"/>
  <path class="st0" d="M256.7,236.4c0,19.1,15.5,34.7,34.7,34.7h118.9v53.4h-118.9c-19.1,0-34.7,15.5-34.7,34.5v88.1h-53.3v-88.1c0-23.9,9.4-45.5,24.9-61.3-15.5-15.8-24.9-37.4-24.9-61.3,0-48.6,39.3-88,88-88h227.3v53.3h-227.3c-19.1,0-34.7,15.5-34.7,34.7Z"/>
  <path class="st0" d="M399.6,447c-48.6,0-88-39.3-88-88s39.3-88,88-88h118.9v53.3h-118.9c-19.1,0-34.7,15.5-34.7,34.7s15.5,34.7,34.7,34.7h119.2v53.3h-119.2Z"/>
</svg>