<?xml version="1.0" encoding="UTF-8"?>
<svg id="Calque_2" data-name="Calque 2" xmlns="http://www.w3.org/2000/svg" viewBox="0 0 271.77 135.62">
  <defs>
    <style>
      .cls-1 {
        fill: #7db928;
      }
    </style>
  </defs>
  <g id="Calque_1-2" data-name="Calque 1">
    <g>
      <path class="cls-1" d="M271.75,12.31c-.19-6.86-5.86-12.31-12.72-12.31h-83.37c-4.53,0-8.2,3.67-8.2,8.2v95.94c0,4.41,3.48,8.04,7.89,8.2,16.45.6,40.86-5.2,69.9-35.8,23.42-24.68,26.84-51.94,26.5-64.23ZM231.06,40.06c-6.32,0-11.45-5.13-11.45-11.45s5.13-11.45,11.45-11.45,11.45,5.13,11.45,11.45-5.13,11.45-11.45,11.45Z"/>
      <path class="cls-1" d="M121.21,79.09c-15.61,0-28.26,12.65-28.26,28.26s12.66,28.26,28.26,28.26l38.21-.44v-16.69h-38.21c-6.15,0-11.13-4.99-11.13-11.13s4.99-11.13,11.13-11.13h38.21v-17.13h-38.21Z"/>
      <g>
        <path class="cls-1" d="M59.71,112.71h17.18l-.05-44.69c0-6.15,4.99-11.13,11.13-11.13h38.21v-17.13h-38.21c-15.61,0-28.26,12.65-28.26,28.26v44.69Z"/>
        <path class="cls-1" d="M87.97.34c-15.61,0-28.26,12.65-28.26,28.26s12.66,28.26,28.26,28.26l38.21.03v-17.16s-38.21,0-38.21,0c-6.15,0-11.13-4.99-11.13-11.13s4.99-11.13,11.13-11.13h73.04V.34h-73.04Z"/>
      </g>
      <path class="cls-1" d="M22.39,6.63c12.37,0,22.23,10.03,22.39,22.39.24,18.5,9.98,22.39,9.98,22.39H22.39C10.02,51.41,0,41.39,0,29.02V6.63h22.39Z"/>
      <path class="cls-1" d="M22.39,96.21c12.37,0,22.23-10.03,22.39-22.39.24-18.5,9.98-22.39,9.98-22.39H22.39c-12.37,0-22.39,10.02-22.39,22.39v22.39h22.39Z"/>
    </g>
  </g>
</svg>